# xmcd
#
# Track frame offsets: 
#        150
#        11250
#        26103
#        39278
#        52878
#        65733
#        79923
#        92518
#        106078
#        120115
#        132360
#
# Disc length: 1955 seconds
#
# Revision: 1
# Processed by: cddbd v1.5.2PL0 Copyright (c) Steve Scherf et al.
# Submitted via: ExactAudioCopy v0.95b4
#
DISCID=7b07a10b
DTITLE=Various Artist - The Blues Collection Vol. 2I
DYEAR=1900
DGENRE=Blues
TTITLE0=Chuck Berry/Thirty Days
TTITLE1=Jhon Lee Hooker/Sugar Mama
TTITLE2=Howlin' Wolf/Evil
TTITLE3=Muddy Waters/Got My Mojo Working
TTITLE4=Bo Diddley/I'm A Man
TTITLE5=Little Walter/Blues With Feelings
TTITLE6=Little Walter/Key To The Highway
TTITLE7=Jimmy Witherspoon/It Ain't No Secret
TTITLE8=Chuck BerryWee We Hours
TTITLE9=Buddy GuyTen Years Ago
TTITLE10=Otis Rush So Many Roads
EXTD=
EXTT0=
EXTT1=
EXTT2=
EXTT3=
EXTT4=
EXTT5=
EXTT6=
EXTT7=
EXTT8=
EXTT9=
EXTT10=
PLAYORDER=
